<?xml version="1.0" standalone="no"?>
<!DOCTYPE svg PUBLIC "-//W3C//DTD SVG 20010904//EN"
 "http://www.w3.org/TR/2001/REC-SVG-20010904/DTD/svg10.dtd">
<svg version="1.0" xmlns="http://www.w3.org/2000/svg"
 width="512.000000pt" height="512.000000pt" viewBox="0 0 512.000000 512.000000"
 preserveAspectRatio="xMidYMid meet">
<metadata>
Created by potrace 1.14, written by Peter Selinger 2001-2017
</metadata>
<g transform="translate(0.000000,512.000000) scale(0.100000,-0.100000)"
fill="#000000" stroke="none">
<path d="M3065 4970 c-2 -4 -19 -6 -37 -5 -18 1 -37 -1 -43 -5 -5 -4 -32 -10
-60 -14 -27 -3 -70 -10 -95 -17 -25 -6 -52 -12 -60 -14 -8 -2 -34 -10 -57 -18
-22 -9 -44 -13 -47 -10 -3 4 -6 1 -6 -6 0 -7 -4 -9 -10 -6 -5 3 -10 1 -10 -6
0 -7 -3 -10 -6 -6 -4 3 -19 0 -35 -9 -16 -8 -29 -12 -29 -8 0 4 -6 1 -13 -5
-8 -6 -47 -27 -88 -48 -41 -20 -75 -40 -77 -45 -2 -4 -13 -8 -23 -8 -11 0 -18
-4 -15 -8 2 -4 -10 -14 -27 -22 -18 -7 -34 -16 -37 -20 -3 -3 -21 -16 -40 -28
-20 -11 -47 -30 -60 -41 -30 -25 -35 -29 -85 -65 -22 -17 -49 -38 -60 -48 -11
-10 -31 -27 -45 -39 -113 -93 -304 -278 -408 -395 -89 -98 -96 -106 -157 -184
-33 -41 -62 -77 -65 -80 -3 -3 -18 -23 -35 -45 -16 -22 -35 -46 -42 -53 -7 -7
-13 -16 -13 -20 0 -4 -12 -20 -26 -37 -14 -16 -37 -49 -51 -72 -14 -24 -29
-43 -34 -43 -5 0 -9 -4 -9 -10 0 -8 -37 -69 -58 -95 -4 -5 -25 -39 -47 -75
-21 -36 -41 -67 -44 -70 -5 -4 -23 -35 -55 -95 -6 -11 -13 -22 -16 -25 -11
-10 -64 -105 -59 -106 2 -1 -3 -10 -11 -20 -8 -11 -24 -37 -35 -59 -11 -22
-24 -43 -28 -46 -5 -3 -8 -9 -8 -13 1 -3 -12 -33 -29 -66 -17 -33 -30 -63 -29
-66 0 -4 -4 -10 -11 -14 -6 -4 -13 -13 -14 -21 -2 -8 -20 -50 -41 -94 -36 -78
-57 -125 -60 -135 0 -3 -9 -20 -18 -37 -10 -18 -17 -34 -16 -35 1 -3 -13 -39
-34 -90 -8 -20 -13 -39 -9 -42 3 -3 0 -6 -7 -6 -6 0 -11 -6 -10 -12 2 -7 -5
-31 -15 -53 -9 -21 -18 -46 -20 -55 -2 -8 -6 -22 -9 -30 -5 -13 -38 -122 -43
-142 -1 -5 -2 -9 -4 -10 -2 -3 -5 -18 -13 -63 -3 -16 -8 -41 -12 -55 -6 -28
-10 -54 -20 -120 -4 -25 -8 -56 -10 -70 -3 -14 -7 -45 -10 -70 -3 -25 -8 -65
-12 -90 -3 -25 -7 -135 -7 -245 -1 -165 2 -210 17 -257 10 -34 23 -58 31 -58
8 0 39 10 70 21 55 21 55 22 50 57 -3 19 -9 45 -13 56 -5 12 -9 67 -9 124 -1
57 -4 107 -7 112 -3 5 0 12 6 16 8 4 7 9 -2 15 -9 5 -10 9 -3 9 7 0 12 10 11
23 0 12 3 56 8 97 4 41 8 90 9 108 0 17 3 32 6 32 3 0 6 18 7 40 2 22 5 51 8
65 6 28 12 63 21 115 13 73 18 97 27 120 3 8 13 42 23 75 21 71 19 66 26 85 3
8 16 44 29 80 12 36 30 83 39 105 10 22 28 65 40 95 12 30 31 74 41 97 11 23
19 46 19 50 0 5 6 15 13 22 6 6 12 15 12 19 2 21 18 52 27 52 6 0 8 3 5 6 -6
6 80 180 141 287 12 20 23 40 24 45 2 4 6 6 11 4 4 -1 7 6 7 15 0 10 18 46 40
81 22 34 40 66 40 69 0 3 11 21 25 39 14 18 25 36 25 40 0 4 11 22 25 40 14
18 25 35 25 39 0 6 40 65 50 75 3 3 21 28 39 57 18 29 45 68 59 87 15 18 34
44 42 56 8 12 26 37 40 55 14 17 36 47 50 65 14 18 32 41 41 51 8 10 24 30 35
44 10 15 30 39 44 54 14 15 57 63 97 107 62 69 162 170 271 273 18 17 37 31
43 31 6 0 7 5 4 10 -3 6 -2 10 3 10 5 0 24 13 43 29 128 112 288 232 339 255
14 6 33 19 43 29 10 10 22 15 27 12 4 -3 10 -1 12 3 5 14 165 88 248 115 99
33 197 54 243 53 20 -1 37 3 37 8 0 4 6 6 14 3 8 -3 16 -3 19 0 7 6 244 4 277
-2 11 -2 60 -7 108 -10 48 -3 98 -7 112 -10 14 -2 46 -6 71 -9 109 -14 309
-66 337 -88 6 -6 12 -8 12 -5 0 7 130 -59 174 -88 60 -40 135 -111 195 -185
20 -25 39 -46 44 -48 4 -2 7 -8 7 -12 0 -5 14 -29 30 -53 17 -25 30 -49 30
-55 0 -6 4 -12 9 -14 9 -4 93 -175 98 -201 2 -10 10 -29 19 -42 9 -14 13 -25
9 -25 -4 0 -3 -6 3 -13 18 -21 25 -94 26 -252 0 -134 -4 -201 -20 -315 -3 -19
-7 -47 -8 -62 -1 -15 -5 -30 -8 -34 -4 -3 -4 -13 -1 -22 4 -9 2 -13 -4 -9 -5
3 -9 -3 -8 -16 1 -12 -4 -47 -10 -79 -7 -32 -10 -58 -8 -58 3 0 1 -6 -5 -12
-6 -7 -11 -17 -11 -23 -1 -5 -4 -26 -8 -45 -9 -46 -10 -50 -12 -52 -2 -3 -5
-15 -15 -63 -1 -5 -4 -14 -8 -20 -5 -9 -20 -69 -19 -80 0 -2 -6 -20 -14 -39
-8 -18 -11 -36 -8 -40 4 -3 2 -6 -3 -6 -5 0 -11 -12 -12 -26 -1 -14 -5 -31 -9
-37 -4 -7 -9 -21 -10 -32 -2 -11 -8 -24 -13 -29 -6 -6 -10 -16 -10 -23 0 -11
-49 -153 -77 -223 -4 -8 -7 -17 -8 -20 -3 -10 -18 -45 -33 -80 -8 -19 -16 -37
-17 -40 -1 -3 -9 -22 -18 -44 -9 -21 -17 -40 -17 -43 0 -2 -39 -84 -87 -181
-47 -97 -86 -180 -85 -184 1 -5 -2 -8 -8 -8 -5 0 -10 -4 -10 -10 0 -5 -13 -32
-30 -60 -16 -27 -26 -50 -22 -50 4 0 0 -6 -8 -13 -8 -7 -22 -25 -30 -42 -20
-41 -63 -109 -73 -116 -5 -3 -9 -10 -8 -15 0 -5 -6 -18 -14 -29 -8 -11 -42
-61 -74 -111 -33 -51 -64 -95 -70 -99 -6 -3 -9 -11 -6 -16 4 -5 2 -9 -3 -9 -5
0 -21 -17 -35 -37 -14 -21 -33 -49 -44 -61 -10 -13 -38 -49 -63 -80 -47 -61
-82 -101 -142 -166 -21 -23 -38 -45 -38 -49 0 -5 -4 -5 -10 -2 -5 3 -10 2 -10
-3 0 -17 -213 -222 -231 -222 -5 0 -7 -5 -4 -10 3 -6 2 -10 -3 -10 -5 0 -20
-10 -33 -21 -51 -45 -178 -139 -188 -139 -6 0 -11 -3 -11 -8 0 -4 -38 -31 -84
-60 -58 -36 -83 -58 -79 -68 3 -8 12 -14 21 -14 8 0 13 -3 9 -6 -6 -6 6 -24
35 -51 9 -9 14 -21 11 -26 -3 -5 8 0 26 12 17 11 44 30 61 41 16 11 33 20 39
20 5 0 11 3 13 8 2 4 23 20 48 37 59 39 160 118 269 210 55 47 281 276 331
335 25 30 52 61 61 71 32 32 228 299 275 373 26 42 51 76 56 76 4 0 8 5 8 12
0 6 20 44 45 84 25 39 45 77 45 83 0 6 5 11 10 11 6 0 10 4 10 9 0 6 15 36 34
68 43 74 142 267 182 358 18 39 44 97 59 130 15 33 28 67 30 74 1 8 7 17 13
19 6 2 9 9 6 16 -3 8 1 20 9 27 7 8 12 20 9 27 -2 7 3 21 11 30 9 9 15 21 15
25 0 6 58 174 79 227 4 8 7 17 7 20 10 42 30 100 36 100 4 0 7 8 6 18 -1 18
34 134 43 142 3 3 7 16 8 30 4 49 7 60 16 60 4 0 6 4 3 9 -3 5 1 27 9 50 8 23
14 43 15 46 0 3 0 6 1 8 1 4 11 72 12 90 1 9 4 17 7 17 4 0 7 12 7 28 1 15 6
45 11 67 10 38 19 90 28 165 3 19 7 46 10 60 11 45 14 394 4 440 -5 25 -12 56
-14 69 -7 30 -37 113 -47 126 -4 6 -9 19 -11 30 -1 11 -5 22 -8 25 -3 3 -23
41 -44 85 -21 44 -46 88 -54 98 -8 9 -12 17 -8 17 4 0 -6 18 -23 39 -17 21
-31 44 -31 50 0 6 -4 11 -8 11 -4 0 -15 12 -24 28 -10 15 -35 47 -58 71 -22
25 -40 48 -40 53 0 5 -4 7 -8 4 -5 -3 -16 6 -26 20 -11 13 -25 24 -33 24 -8 0
-11 5 -8 10 3 6 2 10 -3 10 -5 0 -22 11 -38 25 -16 14 -35 25 -41 25 -7 0 -13
4 -13 8 0 9 -142 88 -152 84 -5 -1 -8 3 -8 9 0 6 -7 9 -15 6 -8 -4 -17 -2 -20
3 -13 21 -239 82 -355 95 -25 3 -58 8 -75 11 -16 3 -59 7 -94 9 -35 3 -75 8
-90 11 -56 12 -91 15 -219 17 -73 2 -135 0 -137 -3z"/>
<path d="M2915 4658 c-138 -9 -183 -15 -237 -32 -26 -7 -49 -11 -52 -8 -4 3
-6 1 -6 -4 0 -5 -10 -11 -23 -12 -13 -1 -48 -13 -79 -26 -31 -14 -59 -22 -62
-19 -3 4 -6 1 -6 -6 0 -7 -4 -10 -9 -7 -5 4 -11 3 -13 -1 -1 -5 -28 -21 -58
-36 -95 -49 -240 -148 -240 -164 0 -3 7 -11 17 -18 13 -10 29 -3 97 47 81 58
256 151 331 174 123 39 199 55 280 61 140 9 260 6 420 -11 50 -5 155 -26 241
-46 45 -11 90 -21 100 -23 11 -1 25 -6 32 -10 6 -5 12 -6 12 -2 0 3 13 -1 30
-10 16 -8 33 -14 37 -13 11 3 85 -23 101 -35 7 -5 15 -7 18 -4 9 8 234 -93
234 -105 0 -4 7 -5 15 -2 8 4 15 2 15 -3 0 -5 14 -17 31 -27 97 -57 219 -241
293 -441 48 -129 56 -185 56 -425 1 -146 -4 -249 -14 -295 -3 -14 3 -24 20
-32 13 -6 22 -7 19 -3 -3 5 -1 10 5 12 29 9 33 451 6 635 -1 7 -5 16 -9 19 -4
4 -7 20 -7 36 0 15 -4 28 -10 28 -5 0 -10 9 -10 20 0 11 -11 44 -24 75 -14 30
-22 55 -18 55 4 0 2 4 -4 8 -6 4 -24 32 -40 62 -33 62 -102 164 -133 197 -12
12 -21 27 -21 33 0 6 -4 8 -10 5 -5 -3 -10 -2 -10 3 0 12 -101 78 -112 75 -5
-2 -8 1 -8 5 0 5 -21 18 -47 30 -155 69 -183 81 -183 77 0 -2 -20 4 -45 15
-25 11 -47 20 -50 20 -3 0 -6 0 -7 1 -2 0 -10 2 -18 4 -8 2 -46 13 -85 25 -77
23 -190 48 -232 52 -7 1 -13 4 -13 7 0 4 -15 7 -32 8 -18 1 -49 5 -68 8 -19 3
-57 8 -85 10 -27 2 -71 7 -97 10 -75 10 -126 10 -233 3z"/>
<path d="M2880 4449 c-30 -4 -73 -9 -95 -12 -49 -7 -84 -14 -150 -29 -27 -7
-54 -13 -60 -13 -5 -1 -12 -3 -15 -4 -3 -2 -13 -4 -22 -6 -18 -3 -84 -23 -108
-32 -8 -3 -21 -7 -28 -9 -8 -1 -21 -6 -30 -10 -9 -4 -19 -8 -22 -9 -46 -16
-273 -125 -280 -134 -3 -4 -32 -24 -65 -44 -33 -20 -73 -48 -90 -62 -28 -23
-29 -26 -13 -41 16 -16 19 -16 52 9 19 15 39 27 44 27 6 0 12 4 14 8 5 13 111
82 125 82 6 0 13 3 15 8 5 12 166 87 181 84 4 -1 7 2 7 6 0 5 6 9 13 10 6 0
46 12 87 27 85 30 233 67 320 81 177 27 517 26 611 -2 10 -2 30 -7 45 -9 16
-2 44 -8 62 -14 18 -5 35 -10 37 -10 3 -1 6 -1 8 -2 1 0 13 -2 27 -5 24 -4
108 -29 140 -41 8 -3 20 -7 25 -9 35 -10 119 -45 131 -55 8 -6 14 -9 14 -5 0
8 92 -38 156 -79 113 -73 242 -243 290 -385 10 -30 19 -59 20 -65 1 -5 3 -12
4 -15 1 -3 3 -21 5 -40 2 -19 3 -40 4 -46 1 -12 50 -17 52 -5 0 3 2 14 4 23 2
10 -1 21 -6 24 -6 3 -7 14 -4 25 4 11 2 19 -5 19 -6 0 -8 5 -5 11 7 11 -34
140 -48 150 -5 3 -8 9 -8 13 2 10 -29 69 -47 89 -8 9 -12 17 -8 17 4 0 -5 11
-20 25 -15 14 -24 25 -20 25 6 0 -28 40 -89 104 -11 12 -36 33 -55 47 -37 27
-179 107 -193 108 -4 0 -20 7 -36 15 -16 9 -31 12 -35 9 -3 -4 -6 -1 -6 6 0 7
-3 10 -8 8 -4 -3 -25 3 -46 14 -22 10 -41 17 -44 14 -3 -2 -13 0 -23 5 -21 12
-191 59 -233 65 -15 2 -35 7 -45 9 -9 3 -38 8 -66 12 -27 3 -54 9 -59 12 -14
8 -344 9 -406 1z"/>
<path d="M2896 4273 c-4 -4 -24 -8 -44 -9 -44 -3 -121 -13 -141 -20 -8 -3 -30
-7 -50 -10 -20 -3 -43 -8 -51 -11 -20 -8 -30 -11 -62 -18 -15 -3 -40 -10 -55
-16 -16 -6 -35 -12 -43 -14 -36 -7 -215 -82 -323 -136 -157 -77 -305 -176
-391 -264 -88 -88 -107 -111 -176 -211 -30 -43 -58 -80 -62 -82 -4 -2 -8 -7
-8 -11 0 -5 -28 -50 -62 -102 -34 -52 -60 -96 -59 -98 2 -2 -2 -7 -7 -10 -5
-3 -44 -60 -88 -126 -106 -163 -215 -315 -226 -315 -4 0 -7 -4 -6 -8 4 -10
-81 -96 -110 -111 -31 -17 -30 -51 3 -49 14 1 25 6 25 10 0 4 6 8 13 8 20 0
207 211 207 234 0 3 9 16 20 28 10 13 19 26 20 31 0 4 7 15 16 25 23 24 164
241 164 251 0 5 7 11 15 15 8 3 14 9 13 13 -3 10 52 93 62 93 4 0 7 6 7 13 0
10 81 136 111 172 4 6 26 35 49 65 22 30 55 70 72 89 17 19 31 39 31 44 0 6 2
8 5 5 3 -3 20 8 38 25 58 54 204 153 287 194 19 9 38 21 41 25 3 5 16 10 28
13 12 2 37 13 54 24 18 11 34 19 37 19 3 0 23 7 45 17 120 51 326 116 405 129
19 3 45 8 58 10 43 9 147 19 192 18 72 -1 223 -11 254 -17 15 -3 47 -7 70 -9
22 -2 73 -12 111 -21 39 -9 79 -18 90 -21 40 -8 255 -84 265 -94 3 -3 41 -23
85 -45 44 -21 85 -44 91 -50 7 -5 25 -19 40 -29 71 -48 159 -153 201 -236 35
-72 64 -141 77 -185 2 -5 6 -18 10 -27 4 -9 5 -22 1 -28 -3 -5 -1 -10 4 -10 6
0 10 -3 9 -7 -1 -7 8 -60 19 -108 14 -58 18 -120 16 -215 -3 -96 -8 -165 -13
-165 -1 0 -4 -13 -6 -30 -3 -16 -9 -35 -15 -41 -5 -6 -6 -14 -2 -17 3 -4 1
-12 -4 -19 -6 -7 -9 -21 -8 -30 2 -10 -1 -18 -6 -18 -5 0 -8 -3 -7 -7 1 -5 -4
-21 -11 -38 -7 -16 -14 -37 -16 -45 -2 -8 -20 -53 -40 -100 -73 -172 -116
-278 -121 -301 -12 -60 -15 -182 -4 -214 14 -41 45 -55 65 -28 12 15 11 18 -1
21 -8 2 -15 9 -15 15 -4 34 -3 187 1 187 4 0 21 44 34 85 1 6 10 27 19 49 9
21 17 40 17 43 0 4 29 71 50 118 9 18 31 72 35 85 1 3 6 16 12 30 6 14 19 52
29 85 10 33 22 62 26 63 5 2 5 8 2 13 -3 6 -1 22 5 37 6 15 13 45 15 67 3 22
5 40 6 40 1 0 3 39 5 87 2 48 6 91 9 96 3 5 2 12 -2 16 -4 4 -8 17 -8 29 -1
12 -5 47 -9 77 -4 30 -8 63 -9 73 0 9 -5 17 -10 17 -5 0 -7 3 -3 6 5 5 -14 85
-30 124 -4 8 -7 17 -7 20 -2 9 -28 75 -44 110 -9 19 -17 40 -18 47 -1 7 -12
26 -23 42 -12 16 -21 32 -21 36 0 20 -90 119 -147 162 -21 15 -47 36 -57 45
-10 10 -23 15 -28 12 -4 -3 -8 -1 -8 4 0 16 -262 143 -325 157 -5 1 -17 5 -25
8 -30 12 -166 47 -205 52 -22 4 -51 9 -65 11 -48 10 -75 14 -117 16 -24 1 -43
5 -43 8 0 3 -29 5 -65 5 -38 0 -65 4 -65 10 0 7 -3 7 -8 0 -8 -12 -94 -14
-103 -2 -3 4 -9 4 -13 0z"/>
<path d="M2968 4105 c-2 -2 -57 -5 -123 -8 -66 -4 -138 -9 -160 -12 -22 -3
-56 -8 -75 -10 -19 -2 -35 -4 -35 -5 0 -1 -11 -3 -25 -6 -43 -7 -124 -25 -140
-31 -8 -3 -21 -7 -28 -9 -8 -1 -21 -6 -30 -10 -9 -4 -19 -8 -22 -9 -55 -21
-70 -28 -70 -36 0 -5 -3 -9 -7 -8 -16 2 -53 -14 -53 -22 0 -5 -5 -9 -11 -9
-10 0 -136 -88 -165 -115 -6 -5 -23 -19 -38 -30 -15 -11 -43 -35 -62 -53 -19
-19 -34 -32 -34 -29 0 3 -36 -32 -79 -77 -124 -127 -151 -156 -146 -156 4 0
-24 -35 -51 -64 -15 -17 -50 -85 -72 -141 -38 -96 -44 -114 -42 -121 1 -4 -3
-10 -10 -14 -6 -4 -12 -13 -14 -21 -1 -8 -7 -24 -14 -35 -6 -12 -8 -24 -5 -28
3 -3 1 -6 -6 -6 -7 0 -9 -4 -6 -10 3 -5 1 -10 -5 -10 -6 0 -8 -4 -5 -10 3 -5
2 -10 -3 -10 -5 0 -12 -9 -15 -20 -3 -11 -6 -24 -7 -28 -1 -4 -11 -19 -21 -34
-10 -14 -19 -31 -19 -37 0 -6 -5 -11 -10 -11 -6 0 -9 -3 -8 -7 1 -5 -14 -34
-35 -66 -20 -31 -37 -59 -37 -62 0 -3 -8 -13 -17 -24 -10 -10 -31 -36 -48 -57
-28 -36 -143 -153 -178 -181 -26 -21 -130 -75 -151 -79 -12 -2 -34 -7 -51 -11
-32 -7 -42 -9 -63 -11 -8 -1 -12 -11 -10 -24 4 -27 22 -29 93 -9 28 7 58 14
68 14 9 1 17 5 17 9 0 4 4 8 9 8 26 0 137 78 204 142 111 108 202 234 288 398
18 36 37 68 42 71 5 3 8 8 7 10 -4 9 13 59 20 59 4 0 10 10 13 23 14 58 109
277 130 299 7 7 25 31 42 53 16 22 57 68 90 102 34 35 60 63 58 63 -3 0 40 39
98 90 10 8 30 27 46 41 43 40 204 159 238 176 17 9 33 20 36 25 3 5 9 9 13 9
3 -1 19 5 34 12 23 12 121 48 145 53 4 1 8 3 10 4 1 1 16 4 32 5 17 2 41 6 55
9 14 4 40 9 59 12 18 3 43 8 55 10 97 19 566 23 566 4 0 -3 15 -6 33 -6 33 -2
92 -10 92 -14 0 -1 17 -3 37 -6 21 -2 77 -18 125 -34 49 -17 95 -31 103 -33 8
-1 17 -5 20 -8 3 -4 23 -16 46 -27 57 -29 126 -93 170 -160 22 -31 42 -58 47
-60 4 -2 7 -10 7 -18 0 -7 9 -29 20 -49 11 -19 18 -35 15 -35 -2 0 7 -24 20
-54 13 -30 21 -57 18 -60 -4 -3 0 -6 7 -6 7 0 11 -3 7 -6 -3 -3 -2 -17 3 -30
7 -16 6 -24 -1 -24 -7 0 -7 -6 2 -16 7 -9 14 -21 15 -28 1 -6 5 -29 8 -51 27
-156 24 -415 -4 -489 -5 -14 -7 -26 -4 -26 4 0 2 -6 -3 -12 -6 -7 -9 -21 -8
-30 2 -10 -1 -18 -6 -18 -4 0 -6 -6 -3 -14 3 -7 -2 -21 -11 -29 -9 -9 -15 -20
-15 -24 1 -4 -2 -17 -6 -28 -3 -11 -6 -24 -5 -29 1 -4 -4 -15 -11 -23 -7 -8
-13 -20 -14 -27 -2 -13 -66 -148 -74 -156 -12 -12 -115 -226 -118 -245 -9 -64
-2 -103 30 -165 45 -87 79 -132 94 -126 9 3 20 6 25 6 11 0 0 30 -21 55 -9 11
-31 48 -48 81 -46 89 -43 119 24 255 31 63 60 116 65 117 5 2 9 8 9 14 0 6 20
53 45 104 25 52 43 99 40 104 -3 6 -2 10 2 10 5 0 16 24 26 53 33 104 38 125
40 160 1 15 4 27 7 27 20 0 17 373 -4 470 -3 14 -8 36 -11 50 -4 14 -8 36 -11
50 -9 38 -10 44 -18 62 -4 9 -9 22 -10 30 -1 7 -8 23 -14 36 -7 12 -10 22 -6
22 3 0 1 7 -6 15 -7 8 -9 15 -5 15 5 0 1 8 -8 18 -10 10 -14 22 -10 25 3 4 1
7 -5 7 -7 0 -11 3 -10 8 9 28 -127 200 -205 260 -24 18 -164 82 -180 82 -7 0
-18 5 -25 12 -7 7 -12 9 -12 5 0 -4 -16 -1 -35 7 -19 8 -35 13 -35 11 0 -2
-21 2 -47 10 -25 8 -50 12 -54 9 -4 -2 -10 0 -14 6 -4 6 -9 8 -13 6 -4 -2 -29
0 -57 5 -27 5 -102 11 -165 14 -63 3 -123 8 -132 9 -9 2 -18 3 -20 1z"/>
<path d="M2697 3944 c-1 -1 -31 -4 -67 -8 -68 -6 -100 -11 -130 -21 -10 -3
-27 -8 -37 -10 -95 -20 -388 -176 -416 -222 -5 -7 -12 -11 -17 -8 -15 9 -19
-23 -4 -42 11 -13 17 -14 20 -5 3 6 12 12 20 12 8 0 14 5 14 10 0 6 6 10 14
10 8 0 16 4 18 8 10 26 224 145 313 176 48 16 62 20 115 31 112 24 340 24 464
0 16 -3 48 -8 70 -10 53 -4 152 -22 193 -34 17 -5 34 -7 37 -3 3 3 6 0 6 -7 0
-7 6 -11 13 -8 6 2 28 -3 46 -11 19 -7 42 -15 50 -17 9 -2 39 -13 66 -26 28
-12 50 -20 51 -18 0 2 8 -4 18 -13 10 -10 24 -18 32 -18 8 0 14 -4 14 -10 0
-5 5 -10 11 -10 16 0 87 -56 138 -109 54 -58 85 -118 97 -191 1 -8 5 -26 9
-40 14 -56 16 -84 20 -300 2 -124 6 -234 9 -245 2 -11 5 -26 5 -32 1 -7 11
-12 24 -11 l23 2 -3 191 c-2 237 -12 364 -34 450 -10 40 -12 47 -43 117 -15
33 -100 128 -154 170 -21 17 -160 98 -168 98 -2 0 -28 11 -58 25 -30 14 -59
25 -65 25 -6 0 -31 7 -57 16 -56 19 -90 27 -121 28 -13 1 -23 4 -23 7 0 3 -6
6 -12 6 -13 1 -91 12 -138 19 -14 2 -56 6 -95 10 -38 3 -72 9 -75 13 -4 5
-187 10 -193 5z"/>
<path d="M2609 3806 c-2 -2 -31 -6 -64 -9 -87 -9 -124 -24 -118 -48 6 -21 5
-21 103 -1 71 14 341 7 430 -12 47 -10 96 -20 110 -23 14 -2 59 -13 101 -23
42 -11 86 -21 97 -23 12 -2 25 -6 28 -10 4 -4 16 -7 26 -7 10 0 18 -5 18 -10
0 -6 3 -9 8 -8 12 3 102 -44 102 -53 0 -5 5 -9 12 -9 14 0 24 -9 106 -91 34
-34 62 -68 62 -75 0 -7 3 -14 8 -16 10 -4 72 -102 72 -115 0 -5 7 -24 15 -41
9 -17 18 -40 20 -52 6 -32 13 -39 35 -33 16 4 19 12 16 37 -4 32 -53 152 -71
173 -31 37 -35 43 -30 43 19 0 -117 148 -180 197 -61 47 -245 134 -245 117 0
-4 -6 -1 -13 5 -8 6 -16 9 -19 6 -2 -3 -20 0 -39 6 -37 11 -58 16 -104 25 -16
3 -34 7 -40 8 -32 8 -125 26 -155 31 -45 7 -285 17 -291 11z"/>
<path d="M2497 3673 c-4 -5 -27 -9 -52 -9 -25 1 -45 -2 -45 -5 0 -3 -6 -6 -12
-6 -78 -1 -208 -37 -282 -76 -71 -38 -256 -216 -256 -247 0 -5 -6 -15 -14 -22
-7 -8 -21 -28 -30 -46 -9 -18 -21 -32 -26 -32 -6 0 -9 -3 -8 -7 3 -12 -36 -93
-44 -93 -5 0 -8 -4 -8 -10 0 -16 -221 -464 -232 -471 -5 -3 -10 -10 -10 -15 1
-5 -14 -31 -31 -59 -18 -27 -34 -54 -36 -60 -15 -34 -162 -178 -225 -220 -102
-66 -258 -117 -397 -129 -57 -4 -69 -11 -62 -35 5 -20 10 -20 113 -6 30 4 62
8 70 9 8 2 22 5 30 8 8 4 29 9 45 13 117 24 266 113 373 222 45 46 82 88 82
93 0 5 11 21 25 36 14 15 23 29 21 32 -3 2 3 12 12 22 21 22 138 251 135 262
-2 4 2 8 7 8 6 0 10 4 10 10 0 5 24 59 54 119 30 60 52 112 48 115 -3 3 -1 6
5 6 6 0 19 20 30 45 10 25 21 45 26 45 4 0 7 5 7 10 0 20 108 177 164 237 84
91 180 149 280 169 63 13 83 16 106 19 14 1 45 6 70 10 61 11 317 13 360 4 19
-4 56 -10 81 -12 25 -2 56 -10 70 -17 13 -8 25 -12 27 -11 4 4 64 -11 98 -25
19 -8 36 -14 39 -14 19 2 222 -117 289 -169 34 -27 150 -144 173 -176 32 -42
87 -158 112 -234 25 -76 25 -74 9 -65 -10 6 -10 5 -1 -7 16 -20 35 -150 35
-239 0 -72 -13 -175 -23 -178 -5 -2 -7 -8 -4 -12 7 -12 -36 -140 -47 -140 -5
0 -7 -4 -4 -9 8 -12 -47 -94 -89 -135 -19 -19 -35 -45 -36 -58 -2 -47 2 -94
11 -118 4 -14 14 -46 21 -72 7 -27 17 -48 21 -48 4 0 5 -7 2 -15 -4 -8 -1 -15
5 -15 6 0 10 -3 9 -7 -1 -5 3 -18 10 -30 7 -13 10 -23 7 -23 -4 0 3 -13 15
-30 12 -16 19 -30 16 -30 -8 0 65 -134 77 -142 13 -8 37 1 37 14 0 5 -24 59
-54 121 -54 113 -64 138 -62 147 0 3 -7 16 -17 30 -9 13 -17 34 -17 46 0 11
-3 24 -7 28 -8 8 -11 23 -19 91 -6 49 -5 52 39 100 25 27 43 53 41 57 -3 4 -1
8 4 8 7 0 33 42 37 60 0 3 6 14 12 25 5 11 16 38 22 60 7 22 15 47 18 55 3 8
7 26 9 40 2 14 7 45 12 70 9 54 8 149 -3 245 -5 39 -9 77 -10 85 -1 8 -5 23
-10 33 -4 10 -8 31 -9 47 0 17 -4 30 -7 30 -4 0 -10 15 -14 33 -4 17 -9 34 -9
37 -1 3 -17 34 -36 70 -19 36 -37 69 -39 74 -6 14 -42 57 -87 103 -23 24 -39
45 -36 48 3 3 0 5 -7 5 -6 0 -22 10 -35 23 -33 31 -60 53 -93 74 -15 9 -30 20
-33 24 -3 3 -39 23 -80 45 -41 21 -76 42 -78 47 -2 4 -15 7 -28 7 -13 0 -24 5
-24 10 0 6 -8 10 -18 10 -10 0 -23 5 -30 12 -7 7 -12 9 -12 5 0 -3 -19 0 -41
9 -39 13 -52 17 -111 29 -13 2 -36 7 -53 10 -94 19 -355 27 -355 11 0 -6 -4
-5 -9 3 -5 7 -11 9 -14 4z"/>
<path d="M2387 3509 c-38 -9 -108 -41 -134 -62 -8 -7 -39 -36 -69 -64 -30 -29
-54 -49 -54 -45 0 4 -9 -6 -19 -23 -10 -16 -28 -39 -38 -51 -11 -11 -50 -65
-87 -120 -36 -54 -71 -104 -76 -111 -6 -7 -10 -16 -10 -21 0 -5 -7 -15 -15
-22 -9 -7 -14 -15 -11 -17 2 -3 -7 -21 -20 -41 -14 -19 -27 -46 -30 -59 -4
-13 -10 -23 -14 -23 -5 0 -12 -10 -15 -22 -4 -13 -36 -83 -71 -156 -35 -73
-64 -136 -64 -140 -1 -4 -7 -14 -15 -22 -7 -8 -16 -25 -19 -37 -4 -13 -12 -23
-17 -23 -5 0 -9 -5 -9 -10 0 -11 -120 -208 -154 -253 -49 -65 -120 -125 -188
-159 -70 -34 -155 -67 -198 -77 -3 0 -29 -8 -58 -16 -30 -9 -56 -14 -59 -11
-3 2 -16 1 -29 -4 -28 -11 -113 -21 -204 -25 -91 -4 -90 -4 -90 -12 1 -29 21
-36 97 -34 75 2 138 7 138 11 0 1 14 3 30 5 17 2 46 7 65 10 19 4 35 6 35 6 0
-5 164 46 215 66 154 62 231 125 326 270 32 49 61 90 64 93 3 3 13 21 24 40
10 19 26 49 36 65 56 98 99 185 93 185 -5 0 -3 4 2 8 10 6 47 81 86 170 8 17
18 32 22 32 5 0 6 4 3 8 -7 12 130 243 139 234 5 -4 5 -2 2 4 -3 6 3 21 14 32
11 12 17 22 14 22 -7 0 74 110 97 131 10 9 18 20 18 24 0 17 140 142 188 168
77 42 182 49 362 24 19 -3 64 -13 100 -22 36 -9 70 -18 75 -19 25 -4 183 -71
208 -88 15 -11 27 -17 27 -13 0 3 6 1 13 -5 6 -5 40 -31 75 -56 34 -25 79 -67
100 -92 20 -26 40 -49 43 -52 4 -3 25 -43 47 -90 42 -89 87 -227 96 -295 3
-22 8 -51 11 -65 3 -14 6 -61 7 -105 2 -124 -34 -181 -156 -245 -80 -42 -136
-96 -145 -142 -8 -33 8 -107 32 -158 22 -45 99 -175 115 -192 8 -10 11 -18 6
-18 -5 0 -1 -5 9 -11 9 -5 17 -15 17 -20 0 -6 6 -16 13 -23 6 -8 19 -24 27
-36 8 -12 26 -37 40 -55 14 -17 36 -47 50 -65 41 -55 75 -95 83 -98 4 -2 7 -9
7 -15 0 -18 43 -43 48 -28 2 6 8 9 13 5 5 -3 9 -1 9 5 0 5 -5 13 -10 16 -6 4
-8 11 -5 16 4 5 2 9 -3 9 -5 0 -42 44 -83 98 -40 53 -76 99 -79 102 -4 3 -22
28 -40 55 -19 28 -37 52 -42 53 -4 2 -8 8 -8 14 0 5 -10 24 -22 41 -25 35 -34
51 -84 146 -18 35 -31 68 -28 72 3 5 1 9 -3 9 -5 0 -10 18 -11 40 -4 52 27 86
129 145 43 25 93 61 112 81 72 76 82 194 37 410 -7 32 -13 65 -13 72 0 6 -5
12 -10 12 -6 0 -8 3 -4 6 3 4 -1 23 -9 43 -9 20 -17 43 -19 52 -6 29 -57 132
-88 179 -33 48 -137 160 -150 160 -4 0 -17 8 -27 18 -18 17 -188 111 -200 111
-3 0 -18 5 -35 11 -58 23 -190 61 -229 66 -21 2 -43 7 -48 10 -16 10 -261 12
-301 3z"/>
<path d="M2475 3342 c-3 -3 -15 -6 -27 -8 -70 -8 -168 -86 -240 -192 -17 -26
-35 -49 -38 -52 -10 -8 -121 -194 -170 -285 -23 -44 -50 -93 -59 -110 -9 -16
-22 -38 -30 -47 -8 -10 -11 -18 -8 -18 6 0 -87 -186 -104 -207 -6 -7 -8 -13
-4 -13 5 0 0 -9 -10 -20 -10 -11 -15 -20 -12 -20 13 0 -129 -252 -145 -258 -4
-2 -8 -8 -8 -14 0 -39 -241 -288 -279 -288 -6 0 -11 -4 -11 -8 0 -9 -71 -47
-82 -44 -5 1 -8 -3 -8 -9 0 -5 -4 -7 -10 -4 -5 3 -10 1 -10 -4 0 -6 -3 -10 -7
-9 -5 1 -32 -6 -61 -15 -30 -9 -57 -16 -60 -16 -4 1 -9 0 -12 -1 -3 -1 -16 -4
-30 -5 -14 -2 -47 -5 -75 -8 -69 -8 -268 -21 -277 -19 -12 3 -29 -36 -18 -43
9 -6 187 1 251 9 19 3 59 8 89 11 30 3 66 7 80 10 52 9 126 18 153 19 15 1 27
3 27 6 0 3 12 7 28 9 54 6 77 9 77 11 0 1 11 3 25 6 14 2 57 11 95 20 64 14
103 23 130 28 6 1 16 5 23 9 6 5 12 6 12 3 0 -2 15 0 33 5 17 6 40 12 50 14
10 2 27 7 37 10 10 3 29 8 42 11 29 6 38 9 63 18 11 5 27 10 35 13 8 4 20 7
25 7 27 4 81 19 90 26 6 4 24 11 42 15 18 3 94 29 170 56 76 28 143 52 148 53
17 5 49 18 85 34 19 9 41 17 48 18 7 1 34 12 60 24 26 13 52 24 57 25 6 1 36
14 68 28 31 15 58 26 60 25 3 -3 71 36 78 45 3 5 9 8 13 7 16 -4 246 123 326
179 85 60 165 170 163 224 0 9 4 17 9 17 5 0 6 5 3 10 -3 6 0 10 7 10 8 0 9 3
3 8 -13 9 -15 52 -3 52 5 0 7 4 3 9 -3 5 -7 27 -10 48 -8 70 -41 176 -65 213
-9 14 -20 33 -23 43 -4 9 -11 17 -17 17 -5 0 -10 6 -10 13 0 17 -83 97 -140
134 -62 40 -248 126 -270 124 -9 0 -55 12 -65 18 -12 6 -18 7 -63 9 -18 1 -31
5 -29 10 6 8 -209 12 -218 4z m166 -47 c27 -2 60 -7 72 -11 12 -4 30 -7 40 -5
9 1 17 -3 17 -9 0 -6 4 -9 10 -5 5 3 25 -1 45 -9 19 -8 35 -12 35 -9 0 3 6 1
13 -5 6 -6 17 -11 22 -12 40 -9 155 -62 155 -72 0 -5 6 -8 14 -8 24 0 113 -77
155 -134 41 -55 90 -163 95 -208 1 -13 5 -28 8 -33 7 -13 1 -139 -8 -167 -4
-13 -9 -29 -10 -37 -2 -8 -6 -17 -11 -20 -4 -3 -15 -19 -23 -34 -17 -34 -86
-93 -143 -124 -23 -13 -38 -23 -33 -23 14 0 -299 -162 -364 -189 -19 -8 -62
-27 -95 -42 -83 -38 -247 -102 -262 -102 -7 0 -13 -4 -13 -7 0 -4 -15 -11 -32
-15 -18 -4 -37 -9 -43 -11 -10 -4 -123 -45 -160 -58 -11 -5 -31 -12 -45 -16
-38 -13 -201 -62 -219 -65 -9 -2 -16 -4 -16 -5 0 -2 -22 -7 -50 -13 -8 -2 -18
-6 -21 -10 -4 -4 -16 -7 -27 -7 -12 0 -34 -4 -51 -10 -52 -16 -169 -43 -200
-46 -16 -1 -31 -6 -35 -11 -3 -4 -19 -8 -36 -9 -16 0 -40 -4 -52 -8 -32 -10
-29 6 5 26 54 32 150 123 217 205 86 106 95 118 95 131 0 6 5 12 11 12 5 0 7
5 4 10 -3 6 -2 10 2 10 9 0 13 7 52 86 14 27 27 51 30 54 9 7 49 94 47 101 0
4 8 17 19 29 11 12 18 23 16 24 -2 0 20 48 49 106 29 58 65 128 79 155 13 28
29 53 34 56 4 3 9 12 11 20 4 25 68 135 155 269 98 150 204 253 254 245 9 -2
17 0 17 5 0 4 21 8 46 8 26 1 49 4 52 6 3 3 9 3 14 0 5 -3 31 -7 59 -9z"/>
<path d="M2576 3163 c-4 -4 -46 -14 -63 -15 -7 -1 -13 -5 -13 -10 0 -4 -3 -7
-7 -6 -5 2 -27 -5 -50 -14 -62 -26 -152 -120 -192 -203 -19 -38 -40 -81 -47
-95 -7 -14 -12 -28 -13 -33 -2 -22 -135 -272 -160 -301 -9 -10 -14 -20 -12
-23 1 -3 -6 -16 -18 -29 -11 -13 -20 -26 -18 -29 3 -8 -236 -365 -245 -365 -4
0 -8 -6 -8 -13 0 -7 -10 -24 -21 -36 -17 -18 -19 -25 -8 -31 7 -5 17 -6 22 -3
4 3 23 7 40 9 30 5 150 27 207 40 14 3 36 7 50 10 14 3 48 12 76 20 28 8 60
16 70 19 11 2 38 10 62 19 23 8 42 13 42 9 0 -3 7 0 15 7 8 7 15 10 15 6 0 -4
13 0 29 8 15 8 39 17 52 20 13 2 38 10 54 17 17 6 35 13 40 15 6 1 24 8 40 15
17 6 35 13 40 15 20 4 267 115 327 146 35 18 66 31 71 30 4 -1 7 2 7 7 0 5 14
14 30 21 17 7 30 16 30 21 0 5 3 8 8 7 13 -4 96 56 134 96 24 26 41 56 46 83
9 40 8 138 -1 173 -10 42 -43 120 -49 120 -5 0 -8 6 -8 13 0 7 -13 28 -30 47
-16 19 -29 41 -30 48 0 6 -4 12 -8 12 -5 0 -26 16 -48 35 -49 44 -124 89 -187
110 -36 12 -77 16 -158 14 -60 -2 -111 -4 -113 -6z m249 -51 c22 -6 43 -10 47
-9 4 1 13 -6 20 -15 7 -9 20 -18 28 -20 8 -2 20 -7 26 -13 7 -5 33 -28 58 -49
26 -22 61 -63 78 -90 18 -28 37 -54 43 -58 5 -4 6 -8 2 -8 -4 0 -2 -10 4 -22
38 -70 43 -210 10 -263 -15 -24 -99 -91 -107 -87 -3 2 -11 -3 -17 -11 -16 -20
-244 -143 -282 -152 -15 -3 -106 -44 -137 -61 -15 -8 -29 -14 -30 -14 -2 1
-16 -4 -33 -10 -71 -28 -201 -73 -212 -73 -7 0 -13 -4 -13 -9 0 -4 -3 -7 -7
-6 -5 1 -28 -4 -53 -12 -25 -7 -51 -13 -57 -13 -7 0 -13 -5 -13 -10 0 -5 -7
-7 -15 -4 -8 4 -17 2 -20 -2 -2 -5 -22 -12 -42 -16 -21 -5 -42 -10 -48 -11 -5
-2 -23 -6 -40 -9 -16 -3 -39 -9 -50 -12 -25 -8 -40 -12 -90 -19 -22 -4 -51
-11 -64 -16 -19 -7 -22 -6 -14 4 5 7 49 74 98 148 49 74 95 141 102 148 7 8
11 17 8 22 -3 5 -1 10 3 12 11 4 112 173 112 186 0 6 4 12 8 14 13 5 121 226
114 232 -3 3 -1 6 5 6 6 0 14 12 19 28 14 50 22 69 53 117 68 106 160 163 289
180 13 2 25 5 28 7 8 8 151 1 189 -10z"/>
<path d="M2628 3006 c-124 -33 -198 -128 -333 -431 -32 -71 -48 -108 -49 -115
-1 -3 -22 -43 -46 -89 -27 -51 -70 -111 -107 -150 -35 -36 -63 -67 -63 -69 0
-3 38 2 98 12 17 3 47 8 65 11 35 6 62 13 62 15 0 1 9 3 20 4 44 6 214 61 283
92 39 18 72 31 72 28 0 -3 12 3 28 13 15 10 44 28 65 38 20 11 37 23 37 28 0
4 4 6 9 2 6 -3 14 3 20 12 6 10 11 15 11 11 0 -19 148 119 167 157 9 16 19 32
23 35 19 14 44 162 31 185 -3 6 -7 21 -9 33 -3 25 -8 33 -57 85 -71 76 -225
119 -327 93z m122 -46 c0 -3 14 -7 31 -8 34 -3 103 -35 129 -60 48 -48 59 -77
57 -148 -2 -55 -9 -80 -32 -122 -27 -49 -148 -171 -162 -164 -3 2 -9 0 -12 -5
-10 -15 -71 -55 -71 -47 0 4 -8 0 -18 -9 -16 -14 -124 -67 -137 -67 -3 0 -18
-6 -34 -14 -40 -21 -258 -86 -304 -91 -37 -4 -37 -4 -18 16 11 12 30 42 43 67
12 26 29 53 36 60 11 13 16 28 13 45 0 4 4 7 10 7 5 0 7 5 4 10 -3 6 -2 10 2
10 5 0 17 23 27 50 10 28 21 50 25 50 4 0 8 6 8 13 1 18 7 41 14 47 5 5 43 81
44 90 2 11 48 95 55 100 4 3 10 15 14 28 4 12 12 22 17 22 5 0 9 4 9 9 0 20
66 81 106 98 38 17 144 27 144 13z"/>
<path d="M2686 2855 c-57 -20 -90 -50 -140 -130 -17 -27 -31 -52 -31 -55 0 -3
-3 -9 -7 -15 -3 -5 -21 -48 -39 -95 -18 -47 -38 -92 -46 -101 -7 -8 -13 -19
-13 -23 0 -4 -13 -21 -30 -39 -16 -18 -30 -35 -30 -39 0 -7 67 12 123 35 20 9
37 13 37 9 0 -4 4 -2 8 3 7 10 80 48 94 49 4 1 13 7 20 14 6 6 16 12 20 12 25
0 188 138 188 160 0 5 5 10 10 10 6 0 10 7 10 15 0 8 5 15 11 15 5 0 7 5 4 10
-3 6 -2 10 2 10 11 0 10 58 -1 89 -21 60 -114 92 -190 66z m131 -70 c18 -20
21 -30 13 -50 -5 -14 -7 -25 -4 -25 3 0 -10 -20 -29 -45 -39 -50 -141 -137
-151 -128 -3 4 -6 1 -6 -5 0 -7 -7 -12 -15 -12 -8 0 -15 -4 -15 -10 0 -5 -11
-12 -25 -16 -14 -3 -25 -10 -25 -16 0 -5 -5 -6 -11 -2 -6 3 -14 3 -18 -2 -3
-5 -16 -15 -28 -21 -24 -14 -24 -15 -2 42 14 34 20 55 21 73 1 6 5 12 10 12 4
0 8 5 8 11 0 17 63 139 72 139 4 0 8 5 8 10 0 6 9 19 21 31 51 51 137 58 176
14z"/>
<path d="M2965 2167 c-5 -25 -8 -60 -5 -67 1 -3 3 -27 6 -54 2 -27 8 -54 12
-60 5 -6 14 -30 22 -53 7 -24 18 -43 23 -43 6 0 8 -3 4 -6 -3 -4 9 -31 28 -60
19 -30 35 -59 35 -64 0 -6 5 -10 10 -10 6 0 10 -5 10 -11 0 -6 6 -16 13 -24 6
-7 38 -47 71 -89 32 -42 63 -76 67 -76 5 0 9 -4 9 -9 0 -13 114 -127 176 -177
27 -21 51 -42 54 -45 15 -17 101 -60 110 -54 19 12 10 42 -17 54 -60 27 -185
139 -305 272 -60 67 -78 90 -78 98 0 5 -3 11 -7 13 -22 9 -172 258 -156 258 4
0 2 5 -5 12 -7 7 -12 22 -12 35 0 13 -5 23 -10 23 -7 0 -9 28 -7 78 5 76 4 78
-19 80 -17 1 -25 -4 -29 -21z"/>
<path d="M2728 2035 c-20 -19 -41 -35 -46 -35 -6 0 -12 -4 -14 -8 -6 -14 -193
-98 -239 -107 -9 -2 -39 -11 -65 -20 -27 -9 -53 -18 -59 -19 -30 -7 -102 -28
-115 -33 -8 -4 -22 -7 -30 -8 -8 0 -31 -6 -50 -13 -19 -6 -46 -14 -60 -16 -14
-3 -25 -5 -25 -6 0 -1 -11 -3 -25 -5 -32 -6 -65 -13 -65 -15 0 -2 -20 -6 -65
-14 -19 -4 -42 -9 -50 -11 -8 -2 -28 -7 -45 -10 -16 -2 -41 -7 -55 -10 -14 -3
-41 -8 -60 -11 -19 -4 -42 -8 -50 -9 -8 -2 -27 -4 -41 -4 -23 -1 -26 -5 -21
-26 4 -25 7 -26 51 -19 25 4 55 8 66 11 11 2 31 6 45 9 41 7 94 17 110 21 8 1
25 4 38 5 12 1 22 5 22 9 0 4 14 5 30 4 17 -1 30 2 30 8 0 6 3 8 6 4 3 -3 23
1 45 8 22 8 42 14 44 14 24 -1 96 15 101 22 3 5 10 7 15 3 5 -3 16 0 24 6 8 7
15 10 15 7 0 -3 28 4 63 14 34 11 69 22 78 24 32 7 145 44 174 56 17 7 35 14
40 14 6 1 44 18 86 38 78 38 90 42 87 30 -3 -11 13 -86 20 -98 4 -5 7 -12 7
-15 1 -13 68 -128 88 -152 12 -15 33 -42 47 -60 40 -54 209 -219 295 -288 44
-36 86 -70 93 -77 7 -7 26 -20 42 -30 17 -9 30 -21 30 -25 0 -4 7 -8 15 -8 8
0 15 -4 15 -10 0 -5 6 -10 13 -10 7 0 23 -9 34 -20 24 -22 80 -40 69 -21 -4 6
-2 11 3 11 22 0 10 20 -21 36 -31 16 -212 149 -287 211 -33 27 -229 223 -262
261 -9 11 -25 33 -35 51 -10 17 -21 31 -25 31 -4 0 -12 14 -19 30 -7 17 -16
30 -21 30 -5 0 -9 8 -9 18 0 10 -3 22 -7 26 -19 18 -39 113 -37 172 1 35 1 64
0 64 0 0 -18 -16 -38 -35z"/>
<path d="M2540 1765 c-52 -34 -248 -105 -288 -105 -10 0 -22 -3 -26 -7 -3 -4
-12 -8 -19 -9 -7 -1 -59 -11 -117 -22 -140 -28 -157 -31 -215 -37 -27 -4 -63
-9 -80 -12 -16 -3 -46 -7 -65 -9 -257 -26 -402 -36 -537 -38 -61 0 -109 -4
-106 -8 2 -5 -7 -4 -21 2 -16 6 -27 6 -31 -1 -4 -5 -11 -6 -17 -3 -6 4 -66 8
-133 10 -67 2 -127 4 -131 5 -29 5 -52 -3 -57 -21 -3 -11 0 -20 6 -21 7 0 39
-3 72 -6 116 -11 570 -4 720 11 28 3 79 8 115 11 36 3 85 8 110 11 25 3 59 7
75 9 17 2 44 6 60 9 17 3 48 8 70 11 125 19 151 24 273 51 62 14 131 32 153
39 21 8 40 14 42 14 1 0 11 3 22 6 36 12 50 16 52 16 2 -1 19 8 38 19 48 27
52 26 66 -17 15 -45 41 -93 77 -142 37 -49 128 -141 141 -141 5 0 14 -6 18
-13 4 -7 26 -26 48 -43 22 -16 46 -35 53 -41 7 -7 16 -13 20 -13 4 0 23 -14
42 -30 19 -16 39 -30 44 -30 5 0 37 -20 72 -45 34 -25 65 -45 68 -45 5 0 96
-60 106 -70 3 -3 26 -19 51 -37 39 -27 49 -30 63 -20 16 12 16 14 -1 32 -10
11 -40 36 -68 55 -27 19 -52 38 -53 42 -2 5 -8 6 -13 2 -5 -3 -9 0 -9 5 0 6
-6 11 -13 11 -7 0 -23 9 -35 20 -12 11 -23 20 -26 20 -13 0 -269 178 -330 230
-124 105 -216 241 -218 323 -1 15 -5 30 -10 33 -4 3 -6 10 -3 15 9 14 5 12
-55 -26z"/>
<path d="M2381 1472 c0 -7 -5 -11 -10 -8 -5 3 -24 0 -42 -8 -19 -8 -47 -16
-64 -19 -16 -3 -41 -8 -55 -11 -48 -11 -85 -17 -130 -21 -25 -2 -74 -7 -110
-10 -112 -12 -198 -15 -430 -15 -208 0 -296 2 -655 15 -248 9 -235 10 -235
-15 0 -11 3 -20 8 -21 12 -1 156 -8 362 -15 241 -10 809 -10 910 -1 208 18
252 24 361 53 80 20 89 18 134 -24 61 -58 228 -187 237 -185 4 2 8 -1 8 -5 0
-5 21 -24 48 -42 26 -19 49 -38 50 -42 2 -4 9 -8 16 -8 7 0 21 -8 32 -18 27
-24 178 -123 249 -163 33 -18 63 -37 66 -42 4 -5 12 -6 18 -3 6 4 11 3 11 -1
0 -5 17 -15 38 -23 20 -8 42 -17 47 -19 6 -2 7 0 3 4 -4 5 -3 14 3 21 11 14
15 11 -77 60 -38 20 -82 44 -98 53 -49 27 -330 215 -346 231 -3 3 -21 17 -42
32 -20 15 -43 35 -52 44 -9 8 -16 13 -16 10 0 -3 -8 2 -18 12 -10 9 -38 33
-62 52 -24 19 -52 43 -62 53 -10 9 -18 14 -18 10 0 -3 -10 6 -23 20 -12 15
-28 27 -34 27 -6 0 -14 8 -16 18 -3 9 -5 11 -6 4z"/>
<path d="M699 1214 c-6 -7 -8 -17 -5 -23 8 -12 86 -19 86 -7 0 6 5 5 11 -1 8
-8 20 -8 35 -3 13 5 24 6 24 1 0 -4 27 -7 60 -6 33 1 60 -2 60 -7 0 -5 5 -6
12 -2 6 4 43 6 82 4 39 -1 145 -3 236 -4 91 -1 171 -5 178 -9 6 -5 12 -5 12 0
0 4 18 8 40 8 22 0 40 -3 40 -7 0 -4 14 -3 30 2 17 5 30 5 30 2 0 -8 415 -6
505 3 33 3 68 6 77 6 9 0 45 -19 79 -43 34 -24 69 -47 78 -53 9 -5 18 -12 21
-15 7 -7 120 -82 152 -100 64 -37 177 -96 218 -114 25 -11 47 -22 50 -26 3 -3
10 -6 15 -7 6 -1 39 -14 74 -29 53 -21 66 -24 77 -12 7 7 10 18 6 23 -8 11
-179 86 -199 88 -7 0 -13 4 -13 7 0 4 -15 14 -32 21 -73 30 -338 192 -346 211
-2 4 -10 8 -18 8 -8 0 -14 5 -14 10 0 6 -6 10 -14 10 -8 0 -16 3 -18 8 -1 4
-23 22 -46 39 -32 23 -51 30 -70 26 -15 -2 -47 -8 -72 -12 -84 -13 -1087 0
-1111 14 -4 3 -10 1 -14 -5 -4 -6 -11 -8 -16 -4 -6 3 -73 7 -150 9 -105 1
-142 -1 -150 -11z"/>
<path d="M693 1039 c-1 -10 2 -21 7 -24 9 -5 92 -10 345 -21 315 -13 407 -15
680 -16 l290 -2 140 -98 c77 -55 148 -106 158 -114 9 -7 20 -14 23 -14 3 0 31
-17 62 -39 31 -21 89 -55 127 -76 39 -21 89 -48 112 -61 22 -12 44 -20 47 -17
3 4 6 0 6 -7 0 -7 2 -11 6 -8 3 3 32 -7 66 -24 33 -16 63 -26 66 -23 3 3 17
-2 30 -11 24 -16 26 -15 38 1 9 13 10 22 4 30 -10 12 -66 29 -82 26 -5 0 -8 3
-8 8 0 5 -12 12 -27 15 -33 8 -197 88 -201 99 -2 4 -8 7 -12 7 -13 0 -134 72
-138 82 -2 4 -8 8 -13 8 -12 0 -203 131 -207 142 -2 4 -8 8 -13 8 -6 0 -15 5
-22 10 -7 6 -40 31 -74 56 l-63 46 -347 3 c-192 2 -415 6 -498 10 -285 11
-350 14 -350 15 0 1 -34 3 -75 5 -68 3 -76 1 -77 -16z"/>
</g>
</svg>
